<?xml version="1.0" encoding="utf-8"?>
<!-- Generator: Adobe Illustrator 17.0.0, SVG Export Plug-In . SVG Version: 6.00 Build 0)  -->
<!DOCTYPE svg PUBLIC "-//W3C//DTD SVG 1.1//EN" "http://www.w3.org/Graphics/SVG/1.1/DTD/svg11.dtd">
<svg version="1.1" id="Layer_1" xmlns="http://www.w3.org/2000/svg" xmlns:xlink="http://www.w3.org/1999/xlink" x="0px" y="0px"
	 width="71.795px" height="64.744px" viewBox="0 0 71.795 64.744" enable-background="new 0 0 71.795 64.744" xml:space="preserve">
<g>
	<path fill-rule="evenodd" clip-rule="evenodd" fill="#449BC1" d="M56.549,52.39c-1.466,1.274-3.132,2.434-4.964,3.446
		c0.34-0.27-0.726-1.393-0.404-1.681c8.079-7.026,9.926-16.07,6.664-24.026c-0.44-1.074,0.487-1.504,0.492-2.489
		C65.779,34.671,64.977,45.062,56.549,52.39z"/>
	<path fill-rule="evenodd" clip-rule="evenodd" fill="#0670B0" d="M58.338,27.64c-2.731-2.582-6.561-4.711-11.533-6.072
		c-0.022-0.006-0.042-0.009-0.064-0.015c0.023,0.006,0.045,0.011,0.069,0.017c1.633,0.429,1.76,2.318,2.884,3.272
		c2.407,2.042,3.064,4.657,3.311,8.111c0.369,5.139,0.34,10.224-3.414,14.751c-1.97,2.376-4.458,4.537-7.399,5.806
		c-0.216,0.097-0.432,0.194-0.656,0.285c-0.035,0.009-0.061,0.026-0.096,0.035c-1.413,0.567-2.984,1.029-4.72,1.352
		c-6.089,1.152-14.142,0.672-23.887-2.425c3.891,3.001,8.061,4.999,12.266,6.15c4.606,1.265,9.256,1.527,13.653,1.003
		c0.009,0,0.026,0,0.035-0.009c0.654-0.07,1.3-0.166,1.937-0.279c2.556-0.445,5.008-1.16,7.285-2.085h0.009
		c1.239-0.506,2.434-1.073,3.568-1.701c0.34-0.27,0.68-0.55,1.003-0.838C61.757,47.025,63.834,36.207,58.338,27.64z"/>
	<path fill-rule="evenodd" clip-rule="evenodd" fill="#295B9F" d="M41.535,53.793c11.392-4.642,12.005-16.404-1.233-23.025
		c-9.616-4.811-5.369-12.448,6.507-9.199C60.075,25.053,56.151,48.155,41.535,53.793z"/>
	<path fill-rule="evenodd" clip-rule="evenodd" fill="#449BC1" d="M59.214,15.211c-12.518-3.981-22.23-3.638-28.602-1.073
		c-0.031,0.011-0.063,0.023-0.094,0.037c-9.473,3.861-11.493,12.645-4.29,19.301c-1.898-1.574-4.064-3.247-5.001-5.375
		c-1.197-2.718-1.557-6.08-1.078-8.907c0.648-3.823,3.065-7.271,7.042-9.378c1.583-0.839,3.966-1.439,6.111-1.762
		C41.719,7.049,51.072,8.917,59.214,15.211z"/>
	<path fill-rule="evenodd" clip-rule="evenodd" fill="#0670B0" d="M28.346,47.034c-0.823-0.266-1.749-0.393-2.509-0.699
		c-9.67-3.888-14.834-11.122-14.649-18.259c0.132-5.072,3.106-10.209,7.975-14.443c1.378-1.196,3.194-2.207,4.866-3.201
		c0.004-0.004,0.008-0.004,0.012-0.004c2.277-0.927,4.727-1.639,7.285-2.086c0.65-0.112,1.308-0.207,1.974-0.286
		c-0.786,0.12-1.531,0.273-2.239,0.472C18.549,11.93,17.8,26.491,26.227,33.478c0,0,0.004,0,0.008,0.004
		c1.457,1.345,3.291,2.608,5.513,3.717C40.47,41.566,37.788,48.255,28.346,47.034z"/>
	<path fill-rule="evenodd" clip-rule="evenodd" fill="#295B9F" d="M28.346,47.034c-0.964-0.124-2.003-0.331-3.104-0.633
		C6.703,41.334,3.984,25.589,15.499,15.576c2.376-2.065,5.277-3.825,8.531-5.145c-1.672,0.993-3.216,2.099-4.594,3.295
		C7.175,24.389,9.617,40.97,28.346,47.034z"/>
</g>
</svg>
